<?xml version="1.0" standalone="no"?>
<!DOCTYPE svg PUBLIC "-//W3C//DTD SVG 20010904//EN"
 "http://www.w3.org/TR/2001/REC-SVG-20010904/DTD/svg10.dtd">
<svg version="1.0" xmlns="http://www.w3.org/2000/svg"
 width="1280.000000pt" height="1280.000000pt" viewBox="0 0 1280.000000 1280.000000"
 preserveAspectRatio="xMidYMid meet">

<g transform="translate(0.000000,1280.000000) scale(0.100000,-0.100000)"
fill="#000000" stroke="none">
<path d="M6001 12784 c-769 -56 -1451 -218 -2111 -501 -1270 -546 -2318 -1472
-3020 -2668 -108 -185 -323 -621 -401 -815 -76 -190 -205 -578 -253 -760 -175
-671 -247 -1396 -201 -2032 17 -233 45 -477 76 -663 334 -2005 1623 -3751
3439 -4660 756 -378 1498 -585 2392 -666 178 -17 786 -17 956 -1 788 75 1397
226 2067 514 965 414 1854 1105 2511 1953 692 891 1136 1953 1283 3065 45 335
55 493 55 845 0 357 -19 625 -64 929 -127 842 -411 1641 -840 2356 -840 1402
-2183 2432 -3750 2875 -691 196 -1462 278 -2139 229z m-1391 -4394 l0 -840
1790 0 1790 0 0 840 0 840 405 0 405 0 0 -2800 0 -2800 -405 0 -405 0 0 865 0
865 -1790 0 -1790 0 0 -865 0 -865 -405 0 -405 0 0 2800 0 2800 405 0 405 0 0
-840z"/>
<path d="M4650 6455 l0 -445 1790 0 1790 0 0 445 0 445 -1790 0 -1790 0 0
-445z"/>
</g>
</svg>
